<?xml version="1.0" encoding="utf-8"?>
<!-- Svg Vector Icons : http://www.onlinewebfonts.com/icon -->
<!DOCTYPE svg PUBLIC "-//W3C//DTD SVG 1.1//EN" "http://www.w3.org/Graphics/SVG/1.1/DTD/svg11.dtd">
<svg version="1.1" xmlns="http://www.w3.org/2000/svg" xmlns:xlink="http://www.w3.org/1999/xlink" x="0px" y="0px" viewBox="0 0 256 256" enable-background="new 0 0 256 256" xml:space="preserve">
<metadata> Svg Vector Icons : http://www.onlinewebfonts.com/icon </metadata>
<g><g><g><path fill="#000000" d="M146.9,2.1c-1,0.6-2.3,1.8-2.8,2.7c-1.1,1.6-1.1,2.9-1.3,32.9L142.6,69l-8.9-8.8c-9.7-9.5-11.4-10.6-15.3-9.4c-4.7,1.4-7.2,6.9-4.9,11.2c0.5,0.8,8.2,8.9,17.2,17.9l16.4,16.4h3.7h3.7L171,79.8c9-9,16.8-17,17.2-17.9c2.3-4.2-0.2-9.8-4.9-11.2c-4-1.1-5.7-0.1-15.3,9.5l-8.9,8.8L159,38c-0.2-28.6-0.2-31.2-1.2-32.9C155.7,1.3,150.5-0.1,146.9,2.1z"/><path fill="#000000" d="M13.6,59.2c-4.7,2.9-4.8,10.1-0.1,13.4c1.1,0.8,3.3,1,13.2,1.2l11.9,0.3l7.3,14.7c11.5,23.2,42.7,90.7,42.3,91.4c-0.3,0.5-13.8,15.6-13.9,15.6c-0.1,0-1.6-0.3-3.4-0.6c-11.3-1.9-24.3,5.8-30.3,17.8l-2.5,5v6.9v6.9l2.4,4.7c2.9,5.8,5.8,9.3,10.7,12.7c12.4,8.8,27.4,6.9,38.2-4.8c3.1-3.3,7.2-10.6,7.2-12.7c0-0.8,3.1-0.9,37.6-0.9c37.4,0,37.6,0,37.9,1.1c0.8,3.3,4.3,9.2,7.3,12.4c5.4,5.8,12,9.4,19.3,10.4c7.1,1,17-2.9,23.2-9.2c12.2-12.4,12.1-29.4-0.3-41.6c-10.2-10-24-11.7-35.7-4.2c-3.8,2.4-9.4,8.5-11.2,12.2l-1.5,3h-38.8H95.4l-0.7-1.8c-0.4-1-2-3.4-3.4-5.4c-1.5-2-2.7-3.7-2.7-3.8c0-0.2,2.9-3.6,6.5-7.6l6.6-7.3h72.1H246v-56.4V76.1h-22.3h-22.3V84v7.9h14.4h14.4v40.6v40.6l-63.6-0.1L103,173l-16.4-35.3c-9-19.4-17.4-37.7-18.7-40.5l-2.4-5.2h18.1h18V84v-7.9h-22h-22l-3.6-7.2c-3.8-7.7-5.2-9.4-8.3-10.3c-1.1-0.3-8.2-0.6-16-0.6C16.5,58.1,15.2,58.2,13.6,59.2z M73.4,212c5.3,2.1,7.9,6.3,7.9,12.9c0,8.9-4.7,13.8-13.3,13.9c-5.3,0-8.1-1-10.8-3.7c-2.7-2.7-3.7-5.5-3.7-10.5c0-6.2,3.2-11.1,8.2-12.8C64.3,210.8,70.7,210.9,73.4,212z M208.2,212.6c2.3,1.2,3.4,2.3,4.7,4.3c1.6,2.5,1.7,3.2,1.7,7.9c0,4.2-0.2,5.5-1.2,7.5c-2.4,4.4-6.3,6.4-12.7,6.4c-6.1,0-9.9-2.1-12.5-7.1c-0.9-1.8-1.2-3.3-1.2-6.8s0.3-5,1.2-6.8c2.7-5,6.2-7,12.6-7.1C204.5,211.1,205.6,211.3,208.2,212.6z"/><path fill="#000000" d="M107.7,117.6v8.2h7.9h7.9v-8.2v-8.2h-7.9h-7.9V117.6z"/><path fill="#000000" d="M137.6,117.6v8.2h7.9h7.9v-8.2v-8.2h-7.9h-7.9V117.6z"/><path fill="#000000" d="M167.5,117.6v8.2h7.9h7.9v-8.2v-8.2h-7.9h-7.9V117.6z"/><path fill="#000000" d="M196.9,117.6v8.2h7.9h7.9v-8.2v-8.2h-7.9h-7.9L196.9,117.6L196.9,117.6z"/><path fill="#000000" d="M107.7,149.8v8.2h7.9h7.9v-8.2v-8.2h-7.9h-7.9V149.8z"/><path fill="#000000" d="M137.6,149.8v8.2h7.9h7.9v-8.2v-8.2h-7.9h-7.9V149.8z"/><path fill="#000000" d="M167.5,149.8v8.2h7.9h7.9v-8.2v-8.2h-7.9h-7.9V149.8z"/><path fill="#000000" d="M196.9,149.8v8.2h7.9h7.9v-8.2v-8.2h-7.9h-7.9L196.9,149.8L196.9,149.8z"/></g></g></g>
</svg>