<?xml version="1.0" encoding="utf-8"?>
<!-- Svg Vector Icons : http://www.onlinewebfonts.com/icon -->
<!DOCTYPE svg PUBLIC "-//W3C//DTD SVG 1.1//EN" "http://www.w3.org/Graphics/SVG/1.1/DTD/svg11.dtd">
<svg version="1.1" xmlns="http://www.w3.org/2000/svg" xmlns:xlink="http://www.w3.org/1999/xlink" x="0px" y="0px" viewBox="0 0 256 256" enable-background="new 0 0 256 256" xml:space="preserve">
<metadata> Svg Vector Icons : http://www.onlinewebfonts.com/icon </metadata>
<g><g><g><path fill="#000000" d="M10,22.5V26l7.3,0.3c8.8,0.3,12.7,1.1,17.9,3.7c5.4,2.6,8.4,5.8,11.3,11.5c1.9,3.9,2.9,7.1,7.7,26.3c3,12,8.2,33,11.4,46.7c6.3,26.2,9.5,39,11.5,45.2c3.8,12.1,10.5,18.9,21.3,21.7c7.1,1.8,10.5,1.9,65.4,1.9h53.4v-3.6v-3.5l-56-0.2c-62-0.1-59.2,0-65.7-3.2c-5.4-2.7-8.7-6.8-11.1-14l-1.3-3.9l64.1-0.2l64.1-0.2l2.7-1.2c3.2-1.5,6.2-4.2,7.9-6.9c0.7-1.2,5.9-18.2,12.9-42.2C245,67.9,246.2,63.7,246,61.3c-0.4-4.6-2.8-8-7-9.9c-2.1-1-2.6-1-91.9-1H57.2l-1.3-4.2c-3.4-11-8.1-17.6-15.8-21.9c-6.2-3.4-15-5.4-24.5-5.4H10V22.5z M109,58c0,0.2,3,20.4,6.7,44.7c3.7,24.3,6.7,44.3,6.7,44.5c0,0.1-9.3,0.3-20.7,0.3H81l-0.5-1.8c-0.3-1-2.7-10.8-5.3-21.8c-2.7-11-7.4-30.4-10.5-43C61.6,68.2,59,57.8,59,57.7c0,0,11.2-0.1,25-0.1C100.4,57.5,109,57.7,109,58z M173.3,59.3c0,3.2-1.5,36-1.7,37.1l-0.2,1.1h-24.6c-19.2,0-24.6-0.1-24.7-0.6c-0.2-0.5-6-38.5-6-39.1c0-0.1,12.9-0.2,28.6-0.2h28.6V59.3z M237.5,58.9c1,1,1.5,1.8,1.5,2.9c0,1.1-7.1,26.6-9.6,34.2l-0.5,1.6H204c-13.7,0-25-0.1-25.1-0.2c-0.1-0.1,0.1-7.6,0.6-16.6c0.4-9,0.8-17.9,0.8-19.8l0-3.4h27.8H236L237.5,58.9z M171.2,106.7c-0.1,1.1-0.6,10.1-1,19.9c-0.4,9.8-0.9,18.6-1,19.4l-0.2,1.6h-19.7c-13.8,0-19.8-0.1-19.8-0.5c0-0.3-1.4-9.7-3.1-21c-1.7-11.2-3.1-20.7-3.1-20.9c0-0.2,9.7-0.4,24.1-0.4h24L171.2,106.7z M221.5,123.3c-5.9,20.2-6.2,21-10,22.9c-1.8,1-2.7,1-18.7,1.1l-16.8,0.1l0.2-2c0.1-1.1,0.6-10.1,1-19.9c0.4-9.8,0.9-18.6,1-19.4l0.2-1.5h24.2h24.2L221.5,123.3z"/><path fill="#000000" d="M79.2,190.5c-15.2,3.5-23,19.8-16,33.7c3,5.9,9.1,10.8,15.4,12.2c6,1.4,13.2,0.1,18.4-3.2c14.3-9.2,14.2-30.3-0.2-39.6C91.8,190.5,84.7,189.3,79.2,190.5z M91,198.8c3.6,1.6,7.1,5.3,8.5,9.1c1.6,4.1,1.2,9.3-1,13.3c-2.9,5.5-7.3,8.2-13.6,8.6c-5.5,0.3-8.6-1-12.5-4.9c-2.5-2.6-3.1-3.5-4-6.4c-1.8-6-0.4-12,4-16.4C77.6,197.1,84.5,195.8,91,198.8z"/><path fill="#000000" d="M202.9,190.4c-6.1,1-12.9,5.9-16.1,11.4c-2.3,4.1-3.1,7.5-2.9,13c0.1,4.4,0.3,5.1,1.9,8.5c3.1,6.5,8.4,11,15.3,12.9c2.1,0.6,4,0.8,7.5,0.6c4.1-0.2,5-0.4,8.2-2c12.3-5.9,17.3-19.7,11.4-31.7c-3.1-6.4-9.3-11.2-16.2-12.7C208.4,189.8,206.7,189.8,202.9,190.4z M211.1,197.7c5.9,1.5,10.4,6.1,11.9,12c1,3.9,0.6,7-1.3,10.9c-4.9,10.1-18.2,12.4-26.2,4.5c-3.7-3.7-4.9-6.9-4.6-12.4c0.2-5,1.5-7.8,5-11c2.8-2.6,3.6-3.1,6.9-4C206.2,196.9,207.7,196.9,211.1,197.7z"/></g></g></g>
</svg>