<?xml version="1.0" encoding="utf-8"?>
<!-- Svg Vector Icons : http://www.onlinewebfonts.com/icon -->
<!DOCTYPE svg PUBLIC "-//W3C//DTD SVG 1.1//EN" "http://www.w3.org/Graphics/SVG/1.1/DTD/svg11.dtd">
<svg version="1.1" xmlns="http://www.w3.org/2000/svg" xmlns:xlink="http://www.w3.org/1999/xlink" x="0px" y="0px" viewBox="0 0 256 256" enable-background="new 0 0 256 256" xml:space="preserve">
<metadata> Svg Vector Icons : http://www.onlinewebfonts.com/icon </metadata>
<g><g><g><path fill="#000000" d="M116.7,10.3C88.9,13.2,64,24.9,44.4,44.5c-18.8,18.8-29.9,41.6-33.9,69c-0.8,5.5-0.8,23.6,0,29.1c3.9,27.4,15.1,50.3,33.9,69c18.7,18.7,41.7,30,69,33.9c5.4,0.8,23.6,0.8,29.1,0c22.6-3.2,42.9-11.8,59.6-25.4c23.8-19.2,38.8-46.1,43.3-77.5c0.8-5.5,0.8-23.6,0-29.1c-3.9-27.3-15.1-50.3-33.9-69c-18.3-18.3-40.6-29.5-66.9-33.5C138.8,10.1,122.6,9.6,116.7,10.3z M118.9,69.6c1.7,0.8,51.4,52.7,52.6,54.9c1,1.9,1,4.8,0,6.7c-1.4,2.5-51.8,54.9-53.3,55.5c-2,0.7-3.9,0.6-5.4-0.1c-1.8-1-13-12.7-13.8-14.5c-0.8-2-0.7-4.2,0.2-6.2c0.5-0.9,8.5-9.7,18-19.6c9.4-9.9,17.2-18.1,17.3-18.2c0.1-0.2-7.4-8.3-16.7-18c-9.3-9.7-17.3-18.4-17.9-19.4c-1.2-1.9-1.3-4.4-0.4-6.7c0.7-1.7,11.3-12.9,13.4-14.2C114.7,68.7,117,68.7,118.9,69.6z"/></g></g></g>
</svg>