<?xml version="1.0" encoding="utf-8"?>
<!-- Svg Vector Icons : http://www.onlinewebfonts.com/icon -->
<!DOCTYPE svg PUBLIC "-//W3C//DTD SVG 1.1//EN" "http://www.w3.org/Graphics/SVG/1.1/DTD/svg11.dtd">
<svg version="1.1" xmlns="http://www.w3.org/2000/svg" xmlns:xlink="http://www.w3.org/1999/xlink" x="0px" y="0px" viewBox="0 0 256 256" enable-background="new 0 0 256 256" xml:space="preserve">
<metadata> Svg Vector Icons : http://www.onlinewebfonts.com/icon </metadata>
<g><g><g><path fill="#000000" d="M14.3,25.3c-1.9,0.8-3.8,3.2-4.2,5C10,31.2,10,35.8,10,40.7c0.1,9.7,0.2,10.1,3.3,12.3c1.2,0.9,1.9,1,11.4,1c9.5,0,10.2,0,11.4-1c3.1-2.4,3.2-2.4,3.2-13.6c0-9.5,0-10.2-1-11.4c-2.3-3.1-2.5-3.2-13-3.3C18,24.7,15.4,24.8,14.3,25.3z"/><path fill="#000000" d="M58.6,25.3c-1.9,0.8-3.8,3.2-4.2,5c-0.2,0.8-0.2,5.4-0.1,10.3c0.1,9.7,0.2,10.1,3.3,12.3l1.2,1h91.3h91.3l1.2-1c3.1-2.4,3.2-2.4,3.2-13.6s0-11.2-3.2-13.6l-1.2-1l-90.8-0.1C76,24.7,59.8,24.8,58.6,25.3z"/><path fill="#000000" d="M14.3,84.4c-1.9,0.8-3.8,3.2-4.2,5C10,90.3,10,94.9,10,99.8c0.1,9.7,0.2,10.1,3.3,12.3c1.2,0.9,1.9,1,11.4,1c9.5,0,10.2,0,11.4-1c3.1-2.4,3.2-2.4,3.2-13.6c0-9.5,0-10.2-1-11.4c-2.3-3.1-2.5-3.2-13-3.3C18,83.8,15.4,83.9,14.3,84.4z"/><path fill="#000000" d="M58.6,84.4c-1.9,0.8-3.8,3.2-4.2,5c-0.2,0.8-0.2,5.4-0.1,10.3c0.1,9.7,0.2,10.1,3.3,12.3l1.2,1h91.3h91.3l1.2-1c3.1-2.4,3.2-2.4,3.2-13.6c0-11.1,0-11.2-3.2-13.6l-1.2-1l-90.8-0.1C76,83.8,59.8,83.9,58.6,84.4z"/><path fill="#000000" d="M14.3,143.5c-1.9,0.8-3.8,3.2-4.2,5c-0.2,0.8-0.2,5.4-0.1,10.3c0.1,9.7,0.2,10.1,3.3,12.3c1.2,0.9,1.9,1,11.4,1c9.5,0,10.2,0,11.4-1c3.1-2.4,3.2-2.4,3.2-13.6c0-9.5,0-10.2-1-11.4c-2.3-3.1-2.5-3.2-13-3.3C18,142.9,15.4,143,14.3,143.5z"/><path fill="#000000" d="M58.6,143.5c-1.9,0.8-3.8,3.2-4.2,5c-0.2,0.8-0.2,5.4-0.1,10.3c0.1,9.7,0.2,10.1,3.3,12.3l1.2,1h91.3h91.3l1.2-1c3.1-2.4,3.2-2.4,3.2-13.6s0-11.2-3.2-13.6l-1.2-1l-90.8-0.1C76,142.9,59.8,143,58.6,143.5z"/><path fill="#000000" d="M14.3,202.5c-1.9,0.8-3.8,3.2-4.2,5C10,208.4,10,213,10,217.9c0.1,9.7,0.2,10.1,3.3,12.3c1.2,0.9,1.9,1,11.4,1c9.5,0,10.2,0,11.4-1c3.1-2.4,3.2-2.4,3.2-13.6c0-9.5,0-10.2-1-11.4c-2.3-3.1-2.5-3.2-13-3.3C18,201.9,15.4,202,14.3,202.5z"/><path fill="#000000" d="M58.6,202.5c-1.9,0.8-3.8,3.2-4.2,5c-0.2,0.8-0.2,5.4-0.1,10.3c0.1,9.7,0.2,10.1,3.3,12.3l1.2,1h91.3h91.3l1.2-1c3.1-2.4,3.2-2.4,3.2-13.6c0-11.1,0-11.2-3.2-13.6l-1.2-1l-90.8-0.1C76,201.9,59.8,202,58.6,202.5z"/></g></g></g>
</svg>