<?xml version="1.0" encoding="UTF-8"?>
<svg xmlns="http://www.w3.org/2000/svg" xmlns:xlink="http://www.w3.org/1999/xlink"   viewBox="0 0 192 192" version="1.1">
<defs>
<g>
<symbol overflow="visible" >
<path style="stroke:none;" fill="#000000" d="M 1.1875 4.390625 L 1.1875 -17.484375 L 12.8125 -17.484375 L 12.8125 4.390625 Z M 2.484375 3 L 11.515625 3 L 11.515625 -16.09375 L 2.484375 -16.09375 Z M 2.484375 3 "/>
</symbol>
<symbol overflow="visible" >
<path style="stroke:none;" fill="#000000" d="M 11.484375 -17.453125 L 11.484375 -14.984375 C 10.785156 -15.453125 10.085938 -15.804688 9.390625 -16.046875 C 8.691406 -16.296875 7.988281 -16.421875 7.28125 -16.421875 C 6.195312 -16.421875 5.335938 -16.148438 4.703125 -15.609375 C 4.078125 -15.078125 3.765625 -14.351562 3.765625 -13.4375 C 3.765625 -12.632812 3.96875 -12.023438 4.375 -11.609375 C 4.789062 -11.191406 5.566406 -10.84375 6.703125 -10.5625 L 7.90625 -10.265625 C 9.488281 -9.867188 10.644531 -9.242188 11.375 -8.390625 C 12.101562 -7.546875 12.46875 -6.394531 12.46875 -4.9375 C 12.46875 -3.21875 11.96875 -1.90625 10.96875 -1 C 9.96875 -0.101562 8.515625 0.34375 6.609375 0.34375 C 5.816406 0.34375 5.019531 0.253906 4.21875 0.078125 C 3.414062 -0.0976562 2.609375 -0.367188 1.796875 -0.734375 L 1.796875 -3.34375 C 2.660156 -2.75 3.476562 -2.316406 4.25 -2.046875 C 5.03125 -1.773438 5.816406 -1.640625 6.609375 -1.640625 C 7.765625 -1.640625 8.664062 -1.914062 9.3125 -2.46875 C 9.957031 -3.019531 10.28125 -3.789062 10.28125 -4.78125 C 10.28125 -5.6875 10.054688 -6.375 9.609375 -6.84375 C 9.171875 -7.320312 8.398438 -7.691406 7.296875 -7.953125 L 6.078125 -8.25 C 4.503906 -8.632812 3.359375 -9.207031 2.640625 -9.96875 C 1.929688 -10.738281 1.578125 -11.769531 1.578125 -13.0625 C 1.578125 -14.675781 2.082031 -15.96875 3.09375 -16.9375 C 4.113281 -17.914062 5.46875 -18.40625 7.15625 -18.40625 C 7.8125 -18.40625 8.5 -18.328125 9.21875 -18.171875 C 9.9375 -18.015625 10.691406 -17.773438 11.484375 -17.453125 Z M 11.484375 -17.453125 "/>
</symbol>
<symbol overflow="visible" >
<path style="stroke:none;" fill="#000000" d="M 1.5625 -18.078125 L 3.859375 -18.078125 L 3.859375 -10.671875 L 10.140625 -10.671875 L 10.140625 -18.078125 L 12.4375 -18.078125 L 12.4375 0 L 10.140625 0 L 10.140625 -8.609375 L 3.859375 -8.609375 L 3.859375 0 L 1.5625 0 Z M 1.5625 -18.078125 "/>
</symbol>
<symbol overflow="visible" >
<path style="stroke:none;" fill="#000000" d="M 10.28125 -9.015625 C 10.28125 -11.671875 10.019531 -13.566406 9.5 -14.703125 C 8.988281 -15.847656 8.15625 -16.421875 7 -16.421875 C 5.832031 -16.421875 4.992188 -15.847656 4.484375 -14.703125 C 3.972656 -13.566406 3.71875 -11.671875 3.71875 -9.015625 C 3.71875 -6.367188 3.972656 -4.476562 4.484375 -3.34375 C 4.992188 -2.207031 5.832031 -1.640625 7 -1.640625 C 8.15625 -1.640625 8.988281 -2.203125 9.5 -3.328125 C 10.019531 -4.460938 10.28125 -6.359375 10.28125 -9.015625 Z M 12.671875 -9.015625 C 12.671875 -5.867188 12.203125 -3.519531 11.265625 -1.96875 C 10.328125 -0.425781 8.90625 0.34375 7 0.34375 C 5.082031 0.34375 3.65625 -0.425781 2.71875 -1.96875 C 1.789062 -3.507812 1.328125 -5.859375 1.328125 -9.015625 C 1.328125 -12.171875 1.789062 -14.523438 2.71875 -16.078125 C 3.65625 -17.628906 5.082031 -18.40625 7 -18.40625 C 8.90625 -18.40625 10.328125 -17.628906 11.265625 -16.078125 C 12.203125 -14.523438 12.671875 -12.171875 12.671875 -9.015625 Z M 12.671875 -9.015625 "/>
</symbol>
<symbol overflow="visible" >
<path style="stroke:none;" fill="#000000" d="M 4.53125 -16.0625 L 4.53125 -9.28125 L 7.1875 -9.28125 C 8.25 -9.28125 9.078125 -9.578125 9.671875 -10.171875 C 10.265625 -10.765625 10.5625 -11.597656 10.5625 -12.671875 C 10.5625 -13.742188 10.265625 -14.578125 9.671875 -15.171875 C 9.078125 -15.765625 8.25 -16.0625 7.1875 -16.0625 Z M 2.234375 -18.078125 L 7.1875 -18.078125 C 9.082031 -18.078125 10.515625 -17.617188 11.484375 -16.703125 C 12.460938 -15.785156 12.953125 -14.441406 12.953125 -12.671875 C 12.953125 -10.890625 12.460938 -9.539062 11.484375 -8.625 C 10.515625 -7.71875 9.082031 -7.265625 7.1875 -7.265625 L 4.53125 -7.265625 L 4.53125 0 L 2.234375 0 Z M 2.234375 -18.078125 "/>
</symbol>
<symbol overflow="visible" >
<path style="stroke:none;" fill="#000000" d="M 2.28125 -18.078125 L 11.6875 -18.078125 L 11.6875 -16.015625 L 8.140625 -16.015625 L 8.140625 -2.0625 L 11.6875 -2.0625 L 11.6875 0 L 2.28125 0 L 2.28125 -2.0625 L 5.828125 -2.0625 L 5.828125 -16.015625 L 2.28125 -16.015625 Z M 2.28125 -18.078125 "/>
</symbol>
<symbol overflow="visible" >
<path style="stroke:none;" fill="#000000" d="M 2.640625 -18.078125 L 12.625 -18.078125 L 12.625 -16.015625 L 4.953125 -16.015625 L 4.953125 -10.6875 L 11.90625 -10.6875 L 11.90625 -8.640625 L 4.953125 -8.640625 L 4.953125 0 L 2.640625 0 Z M 2.640625 -18.078125 "/>
</symbol>
<symbol overflow="visible" >
<path style="stroke:none;" fill="#000000" d="M 0.421875 -18.078125 L 2.859375 -18.078125 L 7 -10.09375 L 11.109375 -18.078125 L 13.578125 -18.078125 L 8.140625 -8.109375 L 8.140625 0 L 5.828125 0 L 5.828125 -8.109375 Z M 0.421875 -18.078125 "/>
</symbol>
</g>
</defs>
<g>
<path style=" stroke:none;fill-rule:nonzero;fill-opacity:1;" fill="#000000" d="M 80.550781 7.800781 C 75.074219 8.699219 69.449219 11.027344 65.25 14.175781 C 62.851562 15.976562 59.101562 19.800781 57.601562 22.050781 C 56.25 24 54 28.574219 53.328125 30.75 C 52.652344 32.699219 51.679688 38.101562 51.679688 39.601562 L 51.679688 40.578125 L 57.078125 40.578125 L 57.304688 38.027344 C 58.054688 28.351562 63.980469 19.726562 72.605469 15.601562 C 77.105469 13.5 79.207031 13.050781 84.90625 13.050781 C 90.605469 13.050781 92.632812 13.5 97.207031 15.601562 C 105.832031 19.652344 111.757812 28.351562 112.507812 38.027344 L 112.734375 40.578125 L 118.207031 40.578125 L 117.980469 38.027344 C 117.605469 34.277344 116.554688 30.378906 114.90625 26.851562 C 113.105469 22.953125 111.832031 21.078125 108.90625 18.078125 C 102.832031 11.628906 94.882812 7.953125 86.332031 7.578125 C 84.230469 7.578125 81.683594 7.578125 80.558594 7.804688 Z M 80.550781 7.800781 "/>
<path style=" stroke:none;fill-rule:nonzero;fill-opacity:1;" fill="#000000" d="M 111.300781 7.648438 C 110.550781 7.722656 109.800781 7.949219 109.652344 8.097656 C 109.503906 8.246094 109.578125 9.449219 109.800781 10.722656 L 110.25 13.121094 L 115.273438 13.121094 C 121.046875 13.121094 123.222656 13.570312 127.648438 15.746094 C 136.347656 19.945312 142.046875 28.269531 142.875 38.019531 L 143.101562 40.644531 L 145.800781 40.644531 C 148.949219 40.644531 148.726562 40.945312 148.125 36.59375 C 146.625 25.417969 139.574219 15.742188 129.074219 10.792969 C 123.449219 8.019531 117.75 7.042969 111.300781 7.644531 Z M 111.300781 7.648438 "/>
<path style=" stroke:none;fill-rule:nonzero;fill-opacity:1;" fill="#000000" d="M 19.125 46.800781 C 18.449219 47.175781 17.476562 48 16.875 48.675781 L 15.824219 50.027344 L 15.824219 180.675781 L 16.875 182.027344 C 17.476562 182.703125 18.449219 183.601562 19.125 183.902344 C 20.25 184.503906 22.949219 184.578125 95.925781 184.578125 C 168.902344 184.578125 171.527344 184.578125 172.726562 183.902344 C 173.402344 183.527344 174.375 182.703125 174.976562 182.027344 L 176.027344 180.675781 L 176.101562 115.800781 C 176.175781 53.027344 176.175781 50.851562 175.578125 49.652344 C 175.203125 48.976562 174.304688 48.003906 173.628906 47.402344 L 172.277344 46.351562 L 159.527344 46.203125 L 159.527344 51.75 L 170.628906 51.75 L 170.628906 178.953125 L 21.230469 178.953125 L 21.230469 51.675781 L 143.027344 51.675781 L 143.027344 176.175781 L 148.574219 176.175781 L 148.574219 46.203125 L 84.523438 46.203125 C 22.722656 46.203125 20.324219 46.203125 19.125 46.804688 Z M 19.125 46.800781 "/>
<g style="fill-opacity:1;" fill="#000000">
  <use xlink:href="#glyph0-1" x="32.121094" y="123.113281"/>
</g>
<g style="fill-opacity:1;" fill="#000000">
  <use xlink:href="#glyph0-2" x="46.121094" y="123.113281"/>
</g>
<g style="fill-opacity:1;" fill="#000000">
  <use xlink:href="#glyph0-3" x="60.117188" y="123.113281"/>
</g>
<g style="fill-opacity:1;" fill="#000000">
  <use xlink:href="#glyph0-4" x="74.117187" y="123.113281"/>
</g>
<g style="fill-opacity:1;" fill="#000000">
  <use xlink:href="#glyph0-5" x="88.113281" y="123.113281"/>
</g>
<g style="fill-opacity:1;" fill="#000000">
  <use xlink:href="#glyph0-6" x="102.113281" y="123.113281"/>
</g>
<g style="fill-opacity:1;" fill="#000000">
  <use xlink:href="#glyph0-7" x="116.109375" y="123.113281"/>
</g>
</g>
</svg>
